<svg xmlns="http://www.w3.org/2000/svg" width="806" height="117" fill="none" viewBox="0 0 806 117">
  <g filter="url(#filter0_d_1381_1312)">
    <path fill="url(#paint0_linear_1381_1312)" d="M65.424 81.368l1.886-.664-.47-1.336h-1.416v2zm-27.936 0v-2h-1.416l-.47 1.336 1.886.664zM32.688 95v2h1.416l.47-1.336L32.688 95zm-11.424 0l-1.883-.674L18.424 97h2.84v-2zm23.904-66.816v-2h-1.409l-.474 1.326 1.883.674zm12.672 0l1.883-.674-.474-1.326H57.84v2zM81.744 95v2h2.84l-.957-2.674-1.883.674zm-11.52 0l-1.886.664.47 1.336h1.416v-2zm-7.872-22.56v2h2.819l-.931-2.66-1.888.66zM51.504 41.432l1.888-.66-1.88-5.373-1.894 5.367 1.886.666zM40.56 72.44l-1.886-.666-.94 2.666h2.826v-2zm24.864 6.928H37.488v4h27.936v-4zm-29.823 1.336l-4.8 13.632 3.774 1.328 4.8-13.632-3.773-1.328zM32.689 93H21.264v4h11.424v-4zm-9.54 2.674L47.05 28.858l-3.766-1.348L19.38 94.326l3.766 1.348zm22.02-65.49H57.84v-4H45.168v4zm10.789-1.326L79.86 95.674l3.766-1.348L59.723 27.51l-3.766 1.348zM81.744 93h-11.52v4h11.52v-4zm-9.633 1.336l-4.8-13.632-3.774 1.328 4.8 13.632 3.773-1.328zM64.24 71.78L53.392 40.772l-3.776 1.32L60.464 73.1l3.776-1.32zM49.618 40.766L38.674 71.774l3.772 1.332L53.39 42.098l-3.772-1.332zM40.56 74.44h21.792v-4H40.56v4zm72.026 10.768l-1.89.656 1.89 5.438 1.889-5.438-1.889-.656zm14.976-43.104v-2h-1.423l-.467 1.344 1.89.656zm11.615 0l1.869.712 1.034-2.712h-2.903v2zM119.018 95v2h1.378l.49-1.288-1.868-.712zm-13.056 0l-1.87.71.489 1.29h1.381v-2zM85.897 42.104v-2H83l1.028 2.71 1.87-.71zm11.712 0l1.89-.656-.467-1.344H97.61v2zm16.866 43.76l14.976-43.104-3.779-1.312-14.976 43.104 3.779 1.312zm13.087-41.76h11.615v-4h-11.615v4zm9.747-2.712l-20.16 52.896 3.737 1.424 20.16-52.896-3.737-1.424zM119.018 93h-13.056v4h13.056v-4zm-11.187 1.29L87.767 41.396l-3.74 1.418 20.065 52.896 3.739-1.418zM85.897 44.105H97.61v-4H85.897v4zm9.823-1.344l14.976 43.104 3.779-1.312-14.976-43.104-3.779 1.312zm51.346 11.44l-1.755-.96-.006.011-.005.01 1.766.939zm9.024-9.504l1.02 1.72.009-.005-1.029-1.715zm23.52-.96l-.953 1.759.022.011.022.011.909-1.781zm7.488 6.048l-1.59 1.213 3.59 4.704v-5.917h-2zm0-7.68v-2h-2v2h2zm11.04 0h2v-2h-2v2zm0 52.896v2h2v-2h-2zm-11.04 0h-2v2h2v-2zm0-7.872h2v-6.041l-3.605 4.848 1.605 1.193zm-7.584 6.24l-.923-1.774.923 1.774zm-23.424-.96l-1.063 1.694.011.007.01.006 1.042-1.707zm-9.024-9.792l-1.778.916.008.016.009.016 1.761-.948zM184.794 59l-1.754.96.009.017.009.015 1.736-.992zm-5.856-6.144l-1.002 1.73 1.002-1.73zm-15.744 0l.967 1.75.018-.01.017-.01-1.002-1.73zm-5.952 6.048l-1.736-.992-.004.007-.004.007 1.744.978zm0 19.008l-1.764.943.009.016.009.016 1.746-.975zm5.952 6.336l-1.036 1.711.027.016.026.015.983-1.742zm15.744 0l1.002 1.73-1.002-1.73zm5.856-6.144l-1.746-.975-.004.007-.004.007 1.754.961zm-38.992-9.792c0-5.033 1.029-9.406 3.03-13.174l-3.532-1.876c-2.351 4.424-3.498 9.459-3.498 15.05h4zm3.019-13.152c2.079-3.802 4.842-6.699 8.289-8.744l-2.04-3.44c-4.105 2.435-7.358 5.874-9.759 10.264l3.51 1.92zm8.298-8.749c3.52-2.112 7.386-3.171 11.643-3.171v-4c-4.959 0-9.541 1.245-13.701 3.741l2.058 3.43zm11.643-3.171c3.891 0 7.167.777 9.895 2.255l1.906-3.518c-3.416-1.85-7.372-2.737-11.801-2.737v4zm9.939 2.277c2.91 1.485 5.158 3.32 6.807 5.48l3.18-2.426c-2.063-2.704-4.807-4.901-8.169-6.616l-1.818 3.563zm10.397 4.267v-7.68h-4v7.68h4zm-2-5.68h11.04v-4h-11.04v4zm9.04-2V95h4V42.104h-4zm2 50.896h-11.04v4h11.04v-4zm-9.04 2v-7.872h-4V95h4zm-3.605-9.065c-1.649 2.217-3.927 4.112-6.902 5.659l1.846 3.548c3.425-1.78 6.203-4.046 8.266-6.82l-3.21-2.387zm-6.902 5.659c-2.878 1.496-6.202 2.27-10.021 2.27v4c4.373 0 8.345-.89 11.867-2.722l-1.846-3.548zm-10.021 2.27c-4.187 0-7.985-1.056-11.438-3.163l-2.084 3.414c4.099 2.501 8.621 3.749 13.522 3.749v-4zm-11.417-3.15c-3.465-2.173-6.24-5.172-8.326-9.046l-3.522 1.896c2.394 4.446 5.635 7.975 9.722 10.538l2.126-3.388zm-8.309-9.014c-2.014-3.909-3.042-8.357-3.042-13.388h-4c0 5.593 1.148 10.68 3.486 15.22l3.556-1.832zm40.254-13.196c0-3.934-.83-7.456-2.568-10.496l-3.472 1.984c1.334 2.336 2.04 5.15 2.04 8.512h4zm-2.55-10.465c-1.631-2.978-3.831-5.306-6.608-6.914l-2.004 3.462c2.087 1.208 3.791 2.976 5.104 5.374l3.508-1.922zm-6.608-6.914a17.446 17.446 0 00-8.874-2.381v4c2.465 0 4.743.611 6.87 1.843l2.004-3.462zm-8.874-2.381c-3.167 0-6.137.797-8.874 2.381l2.004 3.462a13.446 13.446 0 016.87-1.843v-4zm-8.839 2.361c-2.789 1.542-5.025 3.838-6.721 6.807l3.472 1.984c1.376-2.407 3.108-4.143 5.183-5.29l-1.934-3.5zm-6.729 6.82c-1.672 2.98-2.464 6.469-2.464 10.387h4c0-3.378.68-6.162 1.952-8.43l-3.488-1.956zm-2.464 10.387c0 3.921.793 7.456 2.444 10.543l3.528-1.886c-1.293-2.417-1.972-5.282-1.972-8.657h-4zm2.462 10.575c1.686 3.021 3.902 5.401 6.662 7.072l2.072-3.422c-2.104-1.273-3.856-3.117-5.242-5.6l-3.492 1.95zm6.715 7.103c2.783 1.57 5.744 2.37 8.855 2.37v-4c-2.393 0-4.68-.608-6.889-1.854l-1.966 3.484zm8.855 2.37c3.167 0 6.137-.796 8.874-2.381l-2.004-3.462a13.446 13.446 0 01-6.87 1.843v4zm8.874-2.381c2.777-1.608 4.977-3.936 6.608-6.914l-3.508-1.922c-1.313 2.398-3.017 4.166-5.104 5.374l2.004 3.462zm6.6-6.9c1.727-3.094 2.558-6.64 2.558-10.575h-4c0 3.361-.705 6.215-2.05 8.625l3.492 1.95zm26.549-45.999l1.414-1.414-1.414 1.414zm0-9.984l1.414 1.414-1.414-1.414zm9.888 0l-1.415 1.414 1.415-1.414zm0 9.984l-1.415-1.414 1.415 1.414zm.479 9.024h2v-2h-2v2zm0 52.896v2h2v-2h-2zm-10.944 0h-2v2h2v-2zm0-52.896v-2h-2v2h2zm5.569-9.008c-1.48 0-2.627-.48-3.578-1.43l-2.829 2.828c1.737 1.737 3.918 2.602 6.407 2.602v-4zm-3.578-1.43c-.951-.951-1.431-2.099-1.431-3.578h-4c0 2.488.865 4.67 2.602 6.406l2.829-2.828zm-1.431-3.578c0-1.48.48-2.627 1.431-3.578l-2.829-2.828c-1.737 1.737-2.602 3.918-2.602 6.406h4zm1.431-3.578c.951-.95 2.098-1.43 3.578-1.43v-4c-2.489 0-4.67.865-6.407 2.602l2.829 2.828zm3.578-1.43c1.395 0 2.517.466 3.481 1.43l2.829-2.828c-1.724-1.723-3.866-2.602-6.31-2.602v4zm3.481 1.43c.951.951 1.431 2.098 1.431 3.578h4c0-2.489-.865-4.67-2.602-6.406l-2.829 2.828zm1.431 3.578c0 1.48-.48 2.627-1.431 3.578l2.829 2.828c1.737-1.737 2.602-3.918 2.602-6.406h-4zm-1.431 3.578c-.964.964-2.086 1.43-3.481 1.43v4c2.444 0 4.586-.878 6.31-2.602l-2.829-2.828zm-.106 10.438V95h4V42.104h-4zm2 50.896h-10.944v4h10.944v-4zm-8.944 2V42.104h-4V95h4zm-2-50.896h10.944v-4h-10.944v4zm36.257-20.144h2v-2h-2v2zm0 71.04v2h2v-2h-2zm-10.944 0h-2v2h2v-2zm0-71.04v-2h-2v2h2zm8.944 0V95h4V23.96h-4zm2 69.04h-10.944v4h10.944v-4zm-8.944 2V23.96h-4V95h4zm-2-69.04h10.944v-4h-10.944v4zm24.928 28.24l-1.754-.96-.006.011-.006.01 1.766.939zm9.024-9.504l1.021 1.72.008-.005-1.029-1.715zm23.521-.96l-.953 1.759.022.011.022.011.909-1.781zm7.487 6.048l-1.589 1.213 3.589 4.704v-5.917h-2zm0-7.68v-2h-2v2h2zm11.041 0h2v-2h-2v2zm0 52.896v2h2v-2h-2zm-11.041 0h-2v2h2v-2zm0-7.872h2v-6.041l-3.604 4.848 1.604 1.193zm-7.583 6.24l-.923-1.774.923 1.774zm-23.425-.96l-1.062 1.694.01.007.011.006 1.041-1.707zm-9.024-9.792l-1.777.916.008.016.009.016 1.76-.948zM300.482 59l-1.755.96.009.017.009.015 1.737-.992zm-5.857-6.144l-1.002 1.73 1.002-1.73zm-15.743 0l.967 1.75.017-.01.018-.01-1.002-1.73zm-5.952 6.048l-1.737-.992-.004.007-.004.007 1.745.978zm0 19.008l-1.764.943.008.016.009.016 1.747-.975zm5.952 6.336l-1.036 1.711.026.016.027.015.983-1.742zm15.743 0l1.003 1.73-1.003-1.73zm5.857-6.144l-1.747-.975-.004.007-.004.007 1.755.961zm-38.992-9.792c0-5.033 1.028-9.406 3.03-13.174l-3.533-1.876c-2.35 4.424-3.497 9.459-3.497 15.05h4zm3.018-13.152c2.079-3.802 4.842-6.699 8.29-8.744l-2.041-3.44c-4.104 2.435-7.357 5.874-9.758 10.264l3.509 1.92zm8.298-8.749c3.52-2.112 7.387-3.171 11.643-3.171v-4c-4.959 0-9.54 1.245-13.7 3.741l2.057 3.43zm11.643-3.171c3.891 0 7.167.777 9.896 2.255l1.905-3.518c-3.415-1.85-7.371-2.737-11.801-2.737v4zm9.94 2.277c2.909 1.485 5.158 3.32 6.807 5.48l3.179-2.426c-2.063-2.704-4.806-4.901-8.169-6.616l-1.817 3.563zm10.396 4.267v-7.68h-4v7.68h4zm-2-5.68h11.041v-4h-11.041v4zm9.041-2V95h4V42.104h-4zm2 50.896h-11.041v4h11.041v-4zm-9.041 2v-7.872h-4V95h4zm-3.604-9.065c-1.649 2.217-3.928 4.112-6.902 5.659l1.845 3.548c3.426-1.78 6.203-4.046 8.266-6.82l-3.209-2.387zm-6.902 5.659c-2.879 1.496-6.203 2.27-10.021 2.27v4c4.373 0 8.345-.89 11.866-2.722l-1.845-3.548zm-10.021 2.27c-4.188 0-7.985-1.056-11.439-3.163l-2.083 3.414c4.098 2.501 8.621 3.749 13.522 3.749v-4zm-11.418-3.15c-3.465-2.173-6.24-5.172-8.326-9.046l-3.521 1.896c2.394 4.446 5.635 7.975 9.722 10.538l2.125-3.388zm-8.309-9.014c-2.013-3.909-3.041-8.357-3.041-13.388h-4c0 5.593 1.147 10.68 3.486 15.22l3.555-1.832zm40.254-13.196c0-3.934-.83-7.456-2.567-10.496l-3.473 1.984c1.335 2.336 2.04 5.15 2.04 8.512h4zm-2.549-10.465c-1.631-2.978-3.832-5.306-6.608-6.914l-2.005 3.462c2.088 1.208 3.791 2.976 5.104 5.374l3.509-1.922zm-6.608-6.914a17.449 17.449 0 00-8.874-2.381v4c2.464 0 4.743.611 6.869 1.843l2.005-3.462zm-8.874-2.381a17.45 17.45 0 00-8.875 2.381l2.005 3.462a13.444 13.444 0 016.87-1.843v-4zm-8.84 2.361c-2.789 1.542-5.024 3.838-6.721 6.807l3.473 1.984c1.375-2.407 3.108-4.143 5.183-5.29l-1.935-3.5zm-6.729 6.82c-1.672 2.98-2.464 6.469-2.464 10.387h4c0-3.378.681-6.162 1.953-8.43l-3.489-1.956zm-2.464 10.387c0 3.921.793 7.456 2.445 10.543l3.527-1.886c-1.292-2.417-1.972-5.282-1.972-8.657h-4zm2.462 10.575c1.686 3.021 3.903 5.401 6.663 7.072l2.071-3.422c-2.104-1.273-3.855-3.117-5.241-5.6l-3.493 1.95zm6.716 7.103c2.783 1.57 5.744 2.37 8.855 2.37v-4c-2.394 0-4.681-.608-6.89-1.854l-1.965 3.484zm8.855 2.37c3.167 0 6.136-.796 8.874-2.381l-2.005-3.462a13.443 13.443 0 01-6.869 1.843v4zm8.874-2.381c2.776-1.608 4.977-3.936 6.608-6.914l-3.509-1.922c-1.313 2.398-3.016 4.166-5.104 5.374l2.005 3.462zm6.6-6.9c1.727-3.094 2.557-6.64 2.557-10.575h-4c0 3.361-.705 6.215-2.05 8.625l3.493 1.95zm36.916-29.103h-2v6.166l3.619-4.992-1.619-1.174zm7.584-6.24l.894 1.789.007-.004.007-.003-.908-1.782zm23.52.864l1.02-1.72-1.02 1.72zm8.928 9.6l-1.772.927.006.011 1.766-.938zm0 28.416l1.772.927.006-.011-1.778-.916zm-9.024 9.792l1.042 1.707.008-.005-1.05-1.702zm-23.52 1.056l-.909 1.782.007.003.008.004.894-1.789zm-7.488-6.144l1.605-1.193-3.605-4.848v6.041h2zm0 7.68v2h2v-2h-2zM328.2 95h-2v2h2v-2zm0-71.04v-2h-2v2h2zm10.944 0h2v-2h-2v2zM369 58.904l-1.754.96.014.026.014.024 1.726-1.01zm-5.952-6.048l-1.002 1.73.027.016.027.015.948-1.761zm-15.744 0l-.983-1.742-.009.006-.01.005 1.002 1.731zM341.352 59l-1.736-.992-.009.015-.009.016 1.754.961zm0 19.104l-1.764.943.014.025.014.024 1.736-.992zm5.952 6.144l-1.002 1.73.01.007.009.005.983-1.742zm15.744 0l1.002 1.73.007-.003.007-.004-1.016-1.723zM369 77.912l-1.746-.975-.009.016-.009.016 1.764.943zM340.763 51.15c1.644-2.267 3.909-4.15 6.859-5.625l-1.788-3.578c-3.45 1.725-6.241 4.002-8.309 6.855l3.238 2.348zm6.873-5.632c2.96-1.51 6.261-2.278 9.94-2.278v-4c-4.257 0-8.188.895-11.756 2.714l1.816 3.564zm9.94-2.278c4.337 0 8.204 1.035 11.652 3.08l2.04-3.44c-4.104-2.435-8.685-3.64-13.692-3.64v4zm11.652 3.08c3.434 2.037 6.159 4.952 8.176 8.807l3.544-1.854c-2.335-4.465-5.562-7.95-9.68-10.393l-2.04 3.44zm8.182 8.818c2.001 3.768 3.03 8.141 3.03 13.174h4c0-5.591-1.147-10.626-3.498-15.05l-3.532 1.876zm3.03 13.174c0 5.031-1.028 9.48-3.042 13.388l3.556 1.832c2.338-4.54 3.486-9.627 3.486-15.22h-4zm-3.036 13.377c-2.017 3.855-4.781 6.845-8.302 9.017l2.1 3.404c4.159-2.564 7.411-6.102 9.746-10.567l-3.544-1.854zm-8.294 9.012c-3.449 2.104-7.277 3.163-11.534 3.163v4c4.959 0 9.515-1.245 13.618-3.749l-2.084-3.414zm-11.534 3.163c-3.831 0-7.165-.747-10.05-2.189l-1.788 3.578c3.515 1.758 7.477 2.611 11.838 2.611v-4zm-10.035-2.181c-2.898-1.48-5.143-3.338-6.792-5.556l-3.21 2.386c2.063 2.774 4.81 5.011 8.184 6.733l1.818-3.563zm-10.397-4.363V95h4v-7.68h-4zm2 5.68H328.2v4h10.944v-4zm-8.944 2V23.96h-4V95h4zm-2-69.04h10.944v-4H328.2v4zm8.944-2v26.016h4V23.96h-4zm36.16 44.352c0-3.932-.83-7.432-2.578-10.418l-3.452 2.02c1.324 2.262 2.03 5.034 2.03 8.398h4zm-2.55-10.369c-1.642-2.998-3.894-5.306-6.758-6.848l-1.896 3.522c2.128 1.146 3.844 2.87 5.146 5.248l3.508-1.922zm-6.704-6.818a17.446 17.446 0 00-8.874-2.381v4c2.465 0 4.743.611 6.87 1.843l2.004-3.462zm-8.874-2.381c-3.111 0-6.072.8-8.855 2.37l1.966 3.484c2.209-1.246 4.496-1.854 6.889-1.854v-4zm-8.874 2.381c-2.768 1.603-4.994 3.92-6.686 6.883l3.473 1.984c1.379-2.413 3.121-4.192 5.217-5.405l-2.004-3.462zm-6.704 6.914c-1.662 3.034-2.454 6.545-2.454 10.465h4c0-3.376.68-6.201 1.962-8.543l-3.508-1.922zm-2.454 10.465c0 3.921.793 7.456 2.444 10.543l3.528-1.886c-1.293-2.417-1.972-5.282-1.972-8.657h-4zm2.472 10.592c1.692 2.963 3.918 5.28 6.686 6.883l2.004-3.462c-2.096-1.213-3.838-2.992-5.217-5.405l-3.473 1.984zm6.705 6.894c2.783 1.57 5.744 2.37 8.855 2.37v-4c-2.393 0-4.68-.608-6.889-1.854l-1.966 3.484zm8.855 2.37c3.167 0 6.137-.796 8.874-2.381l-2.004-3.462a13.446 13.446 0 01-6.87 1.843v4zm8.888-2.39c2.836-1.672 5.068-4.065 6.7-7.115l-3.528-1.886c-1.312 2.454-3.048 4.285-5.204 5.556l2.032 3.446zm6.682-7.083c1.727-3.094 2.558-6.64 2.558-10.575h-4c0 3.361-.705 6.215-2.05 8.625l3.492 1.95zm33.461-54.927h2v-2h-2v2zm0 71.04v2h2v-2h-2zm-10.944 0h-2v2h2v-2zm0-71.04v-2h-2v2h2zm8.944 0V95h4V23.96h-4zm2 69.04h-10.944v4h10.944v-4zm-8.944 2V23.96h-4V95h4zm-2-69.04h10.944v-4h-10.944v4zm73.408 46.672v2h1.705l.27-1.684-1.975-.316zm-40.416 0v-2h-2.157l.163 2.151 1.994-.151zm4.704 10.176l-1.345 1.48 1.345-1.48zm22.848-3.552v-2h-1.243l-.55 1.115 1.793.885zm11.808 0l1.9.625.863-2.625h-2.763v2zm-8.736 12l1.188 1.609.004-.003-1.192-1.606zm-29.184 1.248l-1.004 1.73.016.01.017.008.971-1.748zm-9.408-9.6l-1.761.948.009.016.009.017 1.743-.981zm-.096-28.704l-1.761-.948-.005.01 1.766.938zm9.312-9.6l-.971-1.748-.012.006.983 1.742zm27.168-.096l.974-1.747-.974 1.747zm9.12 9.216l-1.754.962.007.012 1.747-.974zm-8.16 10.08v2h2.032l-.032-2.032-2 .032zm-4.32-9.696l1.307-1.514-1.307 1.514zm-20.16 0l1.322 1.5.01-.008.01-.009-1.342-1.483zm-4.8 9.696l-1.985-.248-.281 2.248h2.266v-2zm38.704 3.456c0 1.9-.123 3.585-.359 5.06l3.95.632c.276-1.725.409-3.625.409-5.692h-4zm1.616 3.376h-40.416v4h40.416v-4zm-42.41 2.151c.354 4.671 2.115 8.561 5.353 11.505l2.69-2.96c-2.394-2.176-3.769-5.07-4.055-8.847l-3.988.302zm5.353 11.505c3.213 2.921 7.161 4.36 11.713 4.36v-4c-3.64 0-6.604-1.121-9.023-3.32l-2.69 2.96zm11.713 4.36c3.225 0 6.106-.676 8.555-2.127 2.458-1.456 4.355-3.617 5.718-6.38l-3.586-1.77c-1.069 2.165-2.468 3.7-4.17 4.708-1.711 1.013-3.854 1.569-6.517 1.569v4zm12.48-7.392h11.808v-4h-11.808v4zm9.908-2.625c-1.467 4.46-4.126 8.122-8.028 11.02l2.384 3.21c4.546-3.374 7.711-7.713 9.444-12.98l-3.8-1.25zm-8.024 11.016c-3.751 2.77-8.496 4.217-14.364 4.217v4c6.548 0 12.171-1.625 16.74-5l-2.376-3.217zm-14.364 4.217c-4.75 0-8.954-1.049-12.661-3.108l-1.942 3.496c4.357 2.42 9.241 3.612 14.603 3.612v-4zm-12.628-3.09c-3.651-2.12-6.535-5.058-8.669-8.85l-3.486 1.96c2.474 4.4 5.862 7.862 10.147 10.35l2.008-3.46zm-8.651-8.818c-2.061-3.827-3.121-8.293-3.121-13.452h-4c0 5.72 1.18 10.855 3.599 15.348l3.522-1.896zm-3.121-13.452c0-5.17 1.032-9.605 3.03-13.366l-3.532-1.876c-2.354 4.43-3.498 9.531-3.498 15.242h4zm3.025-13.356c2.068-3.84 4.908-6.76 8.534-8.806l-1.966-3.484c-4.31 2.433-7.678 5.914-10.09 10.394l3.522 1.896zm8.522-8.8c3.7-2.055 7.966-3.108 12.853-3.108v-4c-5.481 0-10.431 1.187-14.795 3.612l1.942 3.496zm12.853-3.108c4.692 0 8.798 1.02 12.37 3.011l1.948-3.494c-4.236-2.36-9.026-3.517-14.318-3.517v4zm12.37 3.011c3.571 1.99 6.343 4.788 8.34 8.43l3.508-1.923c-2.355-4.293-5.663-7.64-9.9-10.001l-1.948 3.494zm8.347 8.443c1.987 3.565 3.011 7.733 3.011 12.562h4c0-5.41-1.152-10.267-3.517-14.51l-3.494 1.948zm-4.413 9.074c-.072-4.548-1.726-8.34-5.013-11.178l-2.614 3.028c2.345 2.025 3.571 4.698 3.627 8.214l4-.064zm-5.013-11.178c-3.222-2.783-7.192-4.134-11.771-4.134v4c3.741 0 6.747 1.08 9.157 3.162l2.614-3.028zm-11.771-4.134c-4.249 0-7.966 1.385-11.038 4.165l2.684 2.966c2.304-2.084 5.051-3.131 8.354-3.131v-4zm-11.018 4.147c-3.11 2.74-4.9 6.447-5.463 10.949l3.97.496c.461-3.69 1.871-6.447 4.137-8.443l-2.644-3.002zM426.351 65.8h29.28v-4h-29.28v4zm84.379 27.856l-.851 1.81.021.01.021.01.809-1.83zm-7.776-6.144l-1.614 1.181.007.01.007.009 1.6-1.2zm-3.071-8.736v-2h-2.082l.083 2.08 1.999-.08zm11.328 0l1.992-.17-.157-1.83h-1.835v2zm3.168 5.664l-1.25 1.562.029.023.029.021 1.192-1.606zm14.496.48l1.138 1.644.006-.004.007-.004-1.151-1.636zm-.289-9.024l-.918 1.776.012.007.012.006.894-1.789zm-8.927-3.168l.541-1.925-.013-.004-.528 1.929zm-9.697-3.168l-.759 1.85.759-1.85zm-6.527-4.704l-1.526 1.294.012.013.011.013 1.503-1.32zm-.193-16.032l1.622 1.171.007-.01.008-.011-1.637-1.15zm7.104-5.568l-.787-1.838-.007.003-.007.003.801 1.832zm25.248 2.592l-1.288 1.53.015.012.014.012 1.259-1.554zm5.953 12.384v2h2.099l-.102-2.097-1.997.097zm-10.945 0l-1.993.162.149 1.838h1.844v-2zm-2.879-5.664l1.263-1.55-1.263 1.55zm-13.632-.48l-1.157-1.632 1.157 1.632zm-.768 7.872l-1.368 1.46 1.368-1.46zm3.743 2.304l-.728 1.862.035.014.036.013.657-1.889zm6.529 2.016l-.556 1.921.02.006.02.006.516-1.933zm9.408 3.168l-.817 1.826.028.012.029.012.76-1.85zm6.432 4.608l-1.506 1.317 1.506-1.317zm2.784 8.16h2v-.019l-.001-.019-1.999.038zm-2.497 8.064l-1.636-1.15 1.636 1.15zm-7.103 5.568l-.802-1.832-.007.003-.007.003.816 1.826zm-10.657.016c-3.921 0-7.383-.693-10.422-2.037l-1.619 3.658c3.617 1.6 7.643 2.379 12.041 2.379v-4zm-10.38-2.018c-3.006-1.415-5.327-3.267-7.027-5.534l-3.201 2.4c2.14 2.853 5.004 5.096 8.525 6.754l1.703-3.62zm-7.013-5.515c-1.69-2.309-2.576-4.838-2.688-7.635l-3.997.16c.144 3.603 1.306 6.898 3.456 9.837l3.229-2.362zm-4.686-5.555h11.328v-4h-11.328v4zm9.335-1.83c.243 2.84 1.608 5.213 3.911 7.056l2.499-3.124c-1.537-1.229-2.284-2.633-2.425-4.273l-3.985.342zm3.969 7.1c2.391 1.774 5.295 2.602 8.584 2.602v-4c-2.6 0-4.624-.644-6.201-1.814l-2.383 3.212zm8.584 2.602c3.281 0 6.111-.609 8.242-2.084l-2.277-3.288c-1.197.829-3.103 1.372-5.965 1.372v4zm8.255-2.092c2.175-1.531 3.44-3.64 3.44-6.244h-4c0 1.108-.462 2.071-1.742 2.972l2.302 3.272zm3.44-6.244c0-1.328-.326-2.583-1.044-3.684-.713-1.093-1.734-1.917-2.941-2.52l-1.789 3.577c.713.356 1.132.748 1.379 1.127.242.37.395.844.395 1.5h4zm-3.961-6.192c-2.045-1.058-5.184-2.158-9.305-3.317l-1.083 3.85c4.071 1.145 6.884 2.157 8.551 3.02l1.837-3.553zm-9.318-3.32c-3.925-1.077-7.073-2.109-9.465-3.09l-1.519 3.7c2.6 1.067 5.916 2.147 9.927 3.247l1.057-3.858zm-9.465-3.09c-2.199-.902-4.124-2.284-5.785-4.174l-3.005 2.64c2.051 2.334 4.478 4.088 7.271 5.234l1.519-3.7zm-5.762-4.148c-1.416-1.668-2.214-3.955-2.214-7.058h-4c0 3.809.995 7.09 3.163 9.646l3.051-2.588zm-2.214-7.058c0-2.391.698-4.542 2.118-6.509l-3.243-2.342c-1.908 2.642-2.875 5.61-2.875 8.851h4zm2.133-6.53c1.422-2.024 3.479-3.665 6.269-4.886l-1.603-3.664c-3.354 1.467-6.033 3.538-7.939 6.25l3.273 2.3zm6.255-4.88c2.846-1.22 6.155-1.854 9.965-1.854v-4c-4.255 0-8.114.71-11.54 2.178l1.575 3.676zm9.965-1.854c5.671 0 10.006 1.442 13.207 4.138l2.577-3.06c-4.095-3.448-9.424-5.078-15.784-5.078v4zm13.236 4.162c3.223 2.611 4.983 6.184 5.214 10.927l3.995-.194c-.281-5.753-2.489-10.436-6.69-13.84l-2.519 3.107zm7.212 8.83h-10.945v4h10.945v-4zm-8.951 1.838c-.233-2.87-1.43-5.276-3.61-7.053l-2.527 3.101c1.276 1.04 1.999 2.41 2.15 4.276l3.987-.324zm-3.61-7.053c-2.185-1.78-5.016-2.561-8.271-2.561v4c2.632 0 4.473.627 5.744 1.662l2.527-3.1zm-8.271-2.561c-3.089 0-5.771.576-7.781 2l2.313 3.264c1.062-.752 2.796-1.264 5.468-1.264v-4zm-7.781 2c-2.033 1.44-3.148 3.474-3.148 5.952h4c0-1.106.422-1.953 1.461-2.688l-2.313-3.264zm-3.148 5.952c0 1.959.74 3.672 2.169 5.011l2.735-2.918c-.619-.58-.904-1.236-.904-2.093h-4zm2.169 5.011c1.231 1.155 2.704 2.05 4.383 2.707l1.457-3.725c-1.265-.495-2.288-1.135-3.105-1.9l-2.735 2.918zm4.454 2.734c1.524.53 3.741 1.214 6.63 2.048l1.111-3.842c-2.871-.83-5.006-1.49-6.426-1.984l-1.315 3.778zm6.67 2.06c3.782 1.008 6.807 2.032 9.107 3.06l1.633-3.65c-2.564-1.148-5.811-2.236-9.709-3.276l-1.031 3.866zm9.164 3.085a15.023 15.023 0 015.686 4.075l3.011-2.634a19.036 19.036 0 00-7.178-5.141l-1.519 3.7zm5.686 4.075c1.411 1.612 2.232 3.84 2.29 6.88l3.999-.075c-.07-3.743-1.105-6.955-3.278-9.439l-3.011 2.634zm2.29 6.843c0 2.614-.715 4.897-2.133 6.914l3.273 2.3c1.91-2.719 2.86-5.812 2.86-9.214h-4zm-2.133 6.914c-1.422 2.024-3.479 3.665-6.269 4.886l1.603 3.664c3.354-1.467 6.033-3.538 7.939-6.25l-3.273-2.3zm-6.283 4.892c-2.697 1.205-5.959 1.842-9.841 1.842v4c4.311 0 8.153-.707 11.472-2.19l-1.631-3.652zm31.649.482l-.993 1.736.011.007.01.005.972-1.748zm-9.504-9.6l-1.75.969.007.011 1.743-.98zM563.74 44.6l-.96-1.755.96 1.755zm27.456 0l.959-1.755-.959 1.755zm9.6 38.208l-1.727-1.01 1.727 1.01zm-9.984 9.696l.948 1.761.009-.005-.957-1.756zm-5.952-8.16l-.948-1.76-.01.004-.01.006.968 1.75zm6.048-6.048l-1.737-.992 1.737.992zm.096-19.488l-1.754.96.004.01.005.008 1.745-.978zm-21.6-6.048l-.968-1.75-.01.005-.009.006.987 1.739zm-5.664 6.048l1.762.946.005-.01.004-.008-1.771-.928zm2.208 22.944l-1.473 1.353.014.016.015.015 1.444-1.384zm11.04 12.112c-4.681 0-8.854-1.047-12.565-3.108l-1.943 3.496c4.354 2.419 9.205 3.612 14.508 3.612v-4zm-12.544-3.097c-3.714-2.122-6.624-5.059-8.753-8.843l-3.486 1.96c2.479 4.408 5.904 7.87 10.254 10.356l1.985-3.472zm-8.747-8.832c-2.117-3.823-3.205-8.28-3.205-13.431h-4c0 5.73 1.216 10.872 3.706 15.369l3.499-1.938zm-3.205-13.431c0-5.073 1.114-9.492 3.29-13.315l-3.476-1.978c-2.56 4.497-3.814 9.614-3.814 15.293h4zm3.29-13.315c2.189-3.846 5.155-6.777 8.917-8.834l-1.919-3.51c-4.43 2.423-7.928 5.892-10.474 10.366l3.476 1.978zm8.917-8.834c3.778-2.066 8.02-3.115 12.769-3.115v-4c-5.363 0-10.274 1.191-14.688 3.605l1.919 3.51zm12.769-3.115c4.749 0 8.99 1.049 12.768 3.115l1.919-3.51c-4.414-2.414-9.324-3.605-14.687-3.605v4zm12.768 3.115c3.762 2.057 6.728 4.988 8.918 8.834l3.476-1.978c-2.547-4.474-6.045-7.943-10.475-10.366l-1.919 3.51zm8.918 8.834c2.176 3.823 3.29 8.242 3.29 13.315h4c0-5.68-1.254-10.796-3.814-15.293l-3.476 1.978zm3.29 13.315c0 5.063-1.142 9.475-3.375 13.295l3.453 2.018c2.631-4.5 3.922-9.624 3.922-15.313h-4zm-3.375 13.295c-2.249 3.846-5.311 6.82-9.215 8.95l1.915 3.51c4.544-2.478 8.138-5.968 10.753-10.442l-3.453-2.018zm-9.205 8.944c-3.849 2.072-8.127 3.121-12.876 3.121v4c5.363 0 10.3-1.191 14.772-3.6l-1.896-3.52zm-12.876-2.383c3.149 0 6.107-.756 8.839-2.266l-1.935-3.5c-2.131 1.178-4.422 1.766-6.904 1.766v4zm8.82-2.255c2.856-1.538 5.132-3.835 6.836-6.817l-3.473-1.984c-1.368 2.394-3.123 4.129-5.259 5.28l1.896 3.52zm6.836-6.817c1.746-3.054 2.568-6.679 2.568-10.784h-4c0 3.575-.714 6.478-2.041 8.8l3.473 1.984zm2.568-10.784c0-4.09-.784-7.68-2.464-10.675l-3.489 1.957c1.265 2.254 1.953 5.128 1.953 8.718h4zm-2.454-10.657c-1.635-2.985-3.845-5.291-6.643-6.837l-1.935 3.5c2.067 1.143 3.76 2.868 5.07 5.259l3.508-1.922zm-6.643-6.837c-2.732-1.51-5.69-2.266-8.839-2.266v4c2.482 0 4.773.588 6.904 1.767l1.935-3.502zm-8.839-2.266c-3.15 0-6.107.756-8.84 2.266l1.935 3.5c2.132-1.178 4.422-1.766 6.905-1.766v-4zm-8.859 2.277c-2.74 1.554-4.884 3.871-6.449 6.859l3.543 1.856c1.251-2.388 2.883-4.103 4.88-5.237l-1.974-3.478zm-6.44 6.841c-1.602 2.987-2.349 6.565-2.349 10.642h4c0-3.603.661-6.49 1.874-8.75l-3.525-1.892zm-2.349 10.642c0 6.025 1.527 10.986 4.847 14.6l2.946-2.705c-2.44-2.657-3.793-6.528-3.793-11.895h-4zm4.876 14.632c3.337 3.482 7.546 5.224 12.484 5.224v-4c-3.894 0-7.045-1.33-9.596-3.992l-2.888 2.768zm60.166 9.368l-.992 1.736.011.007.01.005.971-1.748zm-9.503-9.6l-1.75.969.006.011 1.744-.98zm9.791-38.304l-.959-1.755.959 1.755zm27.456 0l.96-1.755-.96 1.755zm9.601 38.208l-1.727-1.01 1.727 1.01zm-9.984 9.696l.948 1.761.009-.005-.957-1.756zm-5.953-8.16l-.948-1.76-.009.004-.01.006.967 1.75zm6.049-6.048l-1.737-.992 1.737.992zm.095-19.488l-1.754.96.005.01.005.008 1.744-.978zm-21.6-6.048l-.967-1.75-.01.005-.01.006.987 1.739zm-5.664 6.048l1.763.946.005-.01.004-.008-1.772-.928zm2.209 22.944l-1.474 1.353.015.016.015.015 1.444-1.384zm11.039 12.112c-4.68 0-8.854-1.047-12.564-3.108l-1.943 3.496c4.353 2.419 9.204 3.612 14.507 3.612v-4zm-12.543-3.097c-3.714-2.122-6.624-5.059-8.753-8.843l-3.487 1.96c2.479 4.408 5.905 7.87 10.255 10.356l1.985-3.472zm-8.747-8.832c-2.117-3.823-3.205-8.28-3.205-13.431h-4c0 5.73 1.215 10.872 3.706 15.369l3.499-1.938zm-3.205-13.431c0-5.073 1.114-9.492 3.29-13.315l-3.477-1.978c-2.56 4.497-3.813 9.614-3.813 15.293h4zm3.29-13.315c2.189-3.846 5.155-6.777 8.917-8.834l-1.919-3.51c-4.43 2.423-7.928 5.892-10.475 10.366l3.477 1.978zm8.917-8.834c3.778-2.066 8.019-3.115 12.769-3.115v-4c-5.363 0-10.274 1.191-14.688 3.605l1.919 3.51zm12.769-3.115c4.749 0 8.99 1.049 12.768 3.115l1.919-3.51c-4.414-2.414-9.325-3.605-14.687-3.605v4zm12.768 3.115c3.762 2.057 6.728 4.988 8.917 8.834l3.477-1.978c-2.547-4.474-6.045-7.943-10.475-10.366l-1.919 3.51zm8.917 8.834c2.176 3.823 3.29 8.242 3.29 13.315h4c0-5.68-1.253-10.796-3.813-15.293l-3.477 1.978zm3.29 13.315c0 5.063-1.141 9.475-3.374 13.295l3.453 2.018c2.631-4.5 3.921-9.624 3.921-15.313h-4zm-3.374 13.295c-2.249 3.846-5.311 6.82-9.215 8.95l1.915 3.51c4.544-2.478 8.138-5.968 10.753-10.442l-3.453-2.018zm-9.206 8.944c-3.848 2.072-8.127 3.121-12.876 3.121v4c5.364 0 10.301-1.191 14.773-3.6l-1.897-3.52zm-12.876-2.383c3.15 0 6.108-.756 8.84-2.266l-1.935-3.5c-2.132 1.178-4.422 1.766-6.905 1.766v4zm8.821-2.255c2.855-1.538 5.132-3.835 6.836-6.817l-3.473-1.984c-1.368 2.394-3.123 4.129-5.26 5.28l1.897 3.52zm6.836-6.817c1.746-3.054 2.567-6.679 2.567-10.784h-4c0 3.575-.714 6.478-2.04 8.8l3.473 1.984zm2.567-10.784c0-4.09-.783-7.68-2.463-10.675l-3.489 1.957c1.264 2.254 1.952 5.128 1.952 8.718h4zm-2.453-10.657c-1.635-2.985-3.846-5.291-6.643-6.837l-1.935 3.5c2.067 1.143 3.76 2.868 5.069 5.259l3.509-1.922zm-6.643-6.837c-2.732-1.51-5.69-2.266-8.839-2.266v4c2.482 0 4.772.588 6.904 1.767l1.935-3.502zm-8.839-2.266c-3.15 0-6.108.756-8.84 2.266l1.935 3.5c2.132-1.178 4.422-1.766 6.905-1.766v-4zm-8.86 2.277c-2.739 1.554-4.883 3.871-6.448 6.859l3.543 1.856c1.251-2.388 2.883-4.103 4.88-5.237l-1.975-3.478zm-6.439 6.841c-1.603 2.987-2.35 6.565-2.35 10.642h4c0-3.603.662-6.49 1.875-8.75l-3.525-1.892zm-2.35 10.642c0 6.025 1.528 10.986 4.847 14.6l2.947-2.705c-2.441-2.657-3.794-6.528-3.794-11.895h-4zm4.877 14.632c3.337 3.482 7.545 5.224 12.483 5.224v-4c-3.894 0-7.045-1.33-9.596-3.992l-2.887 2.768zm88.582-39.304l-.935 1.768.007.003.007.004.921-1.775zm7.776 7.68l-1.754.96 1.754-.96zM724.865 95v2h2v-2h-2zm-10.848 0h-2v2h2v-2zm-3.552-40.416l-1.468 1.358.009.01.008.009 1.451-1.377zm-19.488 0l-1.45-1.378-.001.002 1.451 1.376zM687.425 95v2h2v-2h-2zm-10.944 0h-2v2h2v-2zm0-52.896v-2h-2v2h2zm10.944 0h2v-2h-2v2zm0 6.048h-2v5.575l3.544-4.304-1.544-1.271zm6.816-5.088l-.793-1.836-.007.003-.008.004.808 1.829zm8.928.176c3.876 0 7.26.803 10.201 2.36l1.871-3.536c-3.587-1.899-7.627-2.824-12.072-2.824v4zm10.215 2.367c2.964 1.54 5.271 3.81 6.943 6.865l3.509-1.92c-2.041-3.729-4.917-6.578-8.609-8.495l-1.843 3.55zm6.943 6.865c1.66 3.035 2.538 6.784 2.538 11.328h4c0-5.056-.978-9.499-3.029-13.248l-3.509 1.92zm2.538 11.328V95h4V63.8h-4zm2 29.2h-10.848v4h10.848v-4zm-8.848 2V65.432h-4V95h4zm0-29.568c0-5.053-1.266-9.236-4.101-12.224l-2.902 2.753c1.901 2.003 3.003 5.052 3.003 9.471h4zm-4.084-12.206c-2.813-3.041-6.616-4.482-11.164-4.482v4c3.645 0 6.305 1.12 8.228 3.198l2.936-2.716zm-11.164-4.482c-4.548 0-8.371 1.44-11.242 4.462l2.9 2.755c1.993-2.098 4.699-3.217 8.342-3.217v-4zm-11.243 4.464c-2.835 2.988-4.101 7.171-4.101 12.224h4c0-4.42 1.102-7.468 3.003-9.471l-2.902-2.753zm-4.101 12.224V95h4V65.432h-4zm2 27.568h-10.944v4h10.944v-4zm-8.944 2V42.104h-4V95h4zm-2-50.896h10.944v-4h-10.944v4zm8.944-2v6.048h4v-6.048h-4zm3.544 7.32c1.581-1.92 3.594-3.432 6.081-4.53l-1.617-3.66c-3.018 1.334-5.548 3.214-7.552 5.647l3.088 2.542zm6.065-4.524c2.56-1.105 5.266-1.66 8.135-1.66v-4c-3.402 0-6.649.661-9.721 1.988l1.586 3.672zm57.519-16.62l1.999.054.055-2.054h-2.054v2zm-1.248 46.56v2h1.947l.052-1.946-1.999-.054zm-9.12 0l-1.999.054.052 1.946h1.947v-2zm-1.248-46.56v-2h-2.054l.055 2.054 1.999-.054zm1.152 65.376l-1.414 1.414 1.414-1.414zm0-9.984l-1.414-1.414 1.414 1.414zm9.888 9.984l-1.414-1.414 1.414 1.414zm-1.423-65.43l-1.248 46.56 3.998.108 1.248-46.56-3.998-.108zm.751 44.614h-9.12v4h9.12v-4zm-7.121 1.946l-1.248-46.56-3.998.108 1.248 46.56 3.998-.108zm-3.247-44.506h11.616v-4h-11.616v4zm6.144 63.392c-1.479 0-2.627-.48-3.578-1.43l-2.828 2.828c1.737 1.737 3.917 2.602 6.406 2.602v-4zm-3.578-1.43c-.951-.951-1.43-2.099-1.43-3.578h-4c0 2.489.865 4.67 2.602 6.406l2.828-2.828zm-1.43-3.578c0-1.48.479-2.627 1.43-3.578l-2.828-2.828c-1.737 1.737-2.602 3.918-2.602 6.406h4zm1.43-3.578c.951-.95 2.099-1.43 3.578-1.43v-4c-2.489 0-4.669.865-6.406 2.602l2.828 2.828zm3.578-1.43c1.396 0 2.517.465 3.482 1.43l2.828-2.828c-1.723-1.724-3.866-2.602-6.31-2.602v4zm3.482 1.43c.951.951 1.43 2.099 1.43 3.578h4c0-2.489-.865-4.67-2.602-6.406l-2.828 2.828zm1.43 3.578c0 1.48-.479 2.627-1.43 3.578l2.828 2.828c1.737-1.737 2.602-3.917 2.602-6.406h-4zm-1.43 3.578c-.965.965-2.086 1.43-3.482 1.43v4c2.444 0 4.587-.879 6.31-2.602l-2.828-2.828zm32.834-63.962l1.999.054.055-2.054h-2.054v2zm-1.248 46.56v2h1.947l.052-1.946-1.999-.054zm-9.12 0l-2 .054.053 1.946h1.947v-2zm-1.248-46.56v-2h-2.055l.055 2.054 2-.054zm1.152 65.376l-1.414 1.414 1.414-1.414zm0-9.984l-1.414-1.414 1.414 1.414zm9.888 9.984l-1.414-1.414 1.414 1.414zm-1.424-65.43l-1.248 46.56 3.999.108 1.248-46.56-3.999-.108zm.752 44.614h-9.12v4h9.12v-4zm-7.121 1.946l-1.248-46.56-3.999.108 1.248 46.56 3.999-.108zm-3.247-44.506h11.616v-4h-11.616v4zm6.144 63.392c-1.48 0-2.627-.48-3.578-1.43l-2.828 2.828c1.737 1.737 3.917 2.602 6.406 2.602v-4zm-3.578-1.43c-.951-.951-1.43-2.099-1.43-3.578h-4c0 2.489.865 4.67 2.602 6.406l2.828-2.828zm-1.43-3.578c0-1.48.479-2.627 1.43-3.578l-2.828-2.828c-1.737 1.737-2.602 3.918-2.602 6.406h4zm1.43-3.578c.951-.95 2.098-1.43 3.578-1.43v-4c-2.489 0-4.669.865-6.406 2.602l2.828 2.828zm3.578-1.43c1.395 0 2.517.465 3.482 1.43l2.828-2.828c-1.723-1.724-3.866-2.602-6.31-2.602v4zm3.482 1.43c.951.951 1.43 2.099 1.43 3.578h4c0-2.489-.865-4.67-2.602-6.406l-2.828 2.828zm1.43 3.578c0 1.48-.479 2.627-1.43 3.578l2.828 2.828c1.737-1.737 2.602-3.917 2.602-6.406h-4zm-1.43 3.578c-.965.965-2.087 1.43-3.482 1.43v4c2.444 0 4.587-.879 6.31-2.602l-2.828-2.828z"/>
  </g>
  <defs>
    <linearGradient id="paint0_linear_1381_1312" x1="18" x2="100.808" y1="3.143" y2="305.099" gradientUnits="userSpaceOnUse">
      <stop stop-color="#745FF2"/>
      <stop offset="1" stop-color="#00DDA2"/>
    </linearGradient>
    <filter id="filter0_d_1381_1312" width="805.57" height="116.784" x=".266" y=".08" color-interpolation-filters="sRGB" filterUnits="userSpaceOnUse">
      <feFlood flood-opacity="0" result="BackgroundImageFix"/>
      <feColorMatrix in="SourceAlpha" result="hardAlpha" values="0 0 0 0 0 0 0 0 0 0 0 0 0 0 0 0 0 0 127 0"/>
      <feOffset/>
      <feGaussianBlur stdDeviation="10.5"/>
      <feComposite in2="hardAlpha" operator="out"/>
      <feColorMatrix values="0 0 0 0 0.635294 0 0 0 0 0.34902 0 0 0 0 1 0 0 0 1 0"/>
      <feBlend in2="BackgroundImageFix" result="effect1_dropShadow_1381_1312"/>
      <feBlend in="SourceGraphic" in2="effect1_dropShadow_1381_1312" result="shape"/>
    </filter>
  </defs>
</svg>
