<svg xmlns="http://www.w3.org/2000/svg" width="917" height="83" fill="none" viewBox="0 0 917 83">
  <g filter="url(#filter0_d_1381_1320)">
    <path fill="url(#paint0_linear_1381_1320)" d="M47.46 63.221l.943-.332-.235-.668h-.708v1zm-26.19 0v-1h-.708l-.235.668.943.332zm-4.5 12.78v1h.708l.235-.667L16.77 76zm-10.71 0l-.942-.336L4.64 77h1.42v-1zm22.41-62.64v-1h-.704l-.238.664.942.336zm11.88 0l.942-.336-.238-.664h-.704v1zm22.41 62.64v1h1.42l-.478-1.336-.942.336zm-10.8 0l-.943.333.235.667h.708v-1zm-7.38-21.15v1h1.41l-.466-1.33-.944.33zm-10.17-29.07l.944-.33-.94-2.686-.947 2.684.943.332zm-10.26 29.07l-.943-.332-.47 1.333h1.413v-1zm23.31 7.37H21.27v2h26.19v-2zm-27.133.668l-4.5 12.78 1.886.665 4.5-12.78-1.886-.665zM16.77 75.001H6.06v2h10.71v-2zm-9.768 1.337l22.41-62.64-1.884-.673-22.41 62.64 1.884.673zM28.47 14.362h11.88v-2H28.47v2zm10.938-.664l22.41 62.64 1.884-.673-22.41-62.64-1.884.673zM62.76 75.001h-10.8v2h10.8v-2zm-9.857.668l-4.5-12.78-1.886.665 4.5 12.78 1.886-.665zm-7.38-21.148l-10.17-29.07-1.887.66 10.17 29.07 1.888-.66zM33.468 25.45l-10.26 29.07 1.886.665 10.26-29.07-1.886-.665zM24.15 55.85h20.43v-2H24.15v2zm80.124 10.97l-.945.329.945 2.718.945-2.718-.945-.329zm14.04-40.41v-1h-.711l-.234.672.945.329zm10.89 0l.934.357.517-1.357h-1.451v1zm-18.9 49.59v1h.689l.245-.643-.934-.357zm-12.24 0l-.935.355.245.645h.69v-1zm-18.81-49.59v-1h-1.449l.514 1.355.935-.354zm10.98 0l.945-.328-.234-.671h-.711v1zm14.985 40.739l14.04-40.41-1.89-.657-14.04 40.41 1.89.657zm13.095-39.739h10.89v-2h-10.89v2zm9.955-1.356l-18.9 49.59 1.869.713 18.9-49.59-1.869-.713zm-17.965 48.946h-12.24v2h12.24v-2zm-11.305.646l-18.81-49.59-1.87.71 18.81 49.59 1.87-.71zM79.254 27.41h10.98v-2h-10.98v2zm10.035-.671l14.04 40.41 1.89-.657-14.04-40.41-1.89.657zm59.91 11.012l-.877-.48-.006.01.883.47zm8.46-8.91l.511.86.004-.003-.515-.858zm22.05-.9l-.476.879.011.006.011.005.454-.89zm7.02 5.67l-.795.606 1.795 2.352v-2.959h-1zm0-7.2v-1h-1v1h1zm10.35 0h1v-1h-1v1zm0 49.59v1h1v-1h-1zm-10.35 0h-1v1h1v-1zm0-7.38h1V65.6l-1.802 2.424.802.596zm-7.11 5.85l-.461-.888.461.888zm-21.96-.9l-.531.847.011.006.52-.853zm-8.46-9.18l-.889.457.005.008.004.009.88-.475zm35.37-22.14l-.877.48.005.008.004.008.868-.496zm-5.49-5.76l-.501.865.501-.865zm-14.76 0l.484.875.009-.005.008-.005-.501-.865zm-5.58 5.67l-.868-.497-.004.007.872.49zm0 17.82l-.881.471.004.008.004.008.873-.488zm5.58 5.94l-.517.855.013.008.013.007.491-.87zm14.76 0l.501.865-.501-.866zm5.49-5.76l-.873-.488-.004.007.877.48zm-37.43-9.18c0-4.84.991-9.086 2.943-12.761l-1.766-.939c-2.127 4.005-3.177 8.58-3.177 13.7h2zm2.938-12.75c2.019-3.694 4.717-6.528 8.093-8.53l-1.021-1.72c-3.704 2.197-6.647 5.303-8.827 9.29l1.755.96zm8.097-8.533c3.44-2.064 7.221-3.098 11.365-3.098v-2c-4.495 0-8.634 1.127-12.394 3.383l1.029 1.715zm11.365-3.098c3.766 0 6.986.753 9.694 2.22l.953-1.759c-3.052-1.653-6.612-2.46-10.647-2.46v2zm9.716 2.231c2.827 1.442 5.043 3.242 6.679 5.386l1.59-1.213c-1.843-2.416-4.307-4.397-7.36-5.954l-.909 1.781zm8.474 4.78v-7.2h-2v7.2h2zm-1-6.2h10.35v-2h-10.35v2zm9.35-1v49.59h2v-49.59h-2zm1 48.59h-10.35v2h10.35v-2zm-9.35 1v-7.38h-2v7.38h2zm-1.802-7.977c-1.636 2.2-3.882 4.058-6.769 5.56l.923 1.774c3.113-1.619 5.607-3.661 7.451-6.14l-1.605-1.194zm-6.769 5.56c-2.839 1.476-6.097 2.227-9.799 2.227v2c3.979 0 7.561-.81 10.722-2.453l-.923-1.775zm-9.799 2.227c-4.081 0-7.8-1.033-11.179-3.094l-1.041 1.707c3.701 2.258 7.782 3.386 12.22 3.386v-2zm-11.168-3.088c-3.385-2.122-6.088-5.05-8.111-8.807l-1.761.949c2.177 4.043 5.113 7.235 8.809 9.553l1.063-1.695zm-8.103-8.79c-1.958-3.803-2.949-8.113-2.949-12.953h-2c0 5.12 1.05 9.75 3.171 13.868l1.778-.916zm37.641-12.773c0-3.562-.751-6.71-2.291-9.406l-1.737.993c1.34 2.344 2.028 5.136 2.028 8.413h2zm-2.283-9.39c-1.459-2.665-3.413-4.725-5.866-6.145l-1.002 1.73c2.108 1.221 3.814 3.001 5.114 5.376l1.754-.96zm-5.866-6.145a15.478 15.478 0 00-7.881-2.114v2c2.465 0 4.752.613 6.879 1.845l1.002-1.731zm-7.881-2.114c-2.815 0-5.448.706-7.881 2.114l1.002 1.73a13.483 13.483 0 016.879-1.845v-2zm-7.863 2.104c-2.459 1.359-4.445 3.389-5.965 6.05l1.737.992c1.359-2.38 3.093-4.13 5.195-5.291l-.967-1.75zm-5.969 6.056c-1.48 2.638-2.198 5.754-2.198 9.31h2c0-3.285.662-6.05 1.943-8.331l-1.745-.979zm-2.198 9.31c0 3.556.719 6.723 2.189 9.471l1.763-.943c-1.29-2.412-1.952-5.245-1.952-8.529h-2zm2.197 9.487c1.515 2.714 3.492 4.829 5.936 6.308l1.035-1.711c-2.116-1.28-3.86-3.127-5.224-5.572l-1.747.975zm5.962 6.323c2.484 1.401 5.112 2.11 7.871 2.11v-2c-2.4 0-4.692-.612-6.888-1.852l-.983 1.742zm7.871 2.11c2.816 0 5.449-.707 7.881-2.115l-1.002-1.731a13.478 13.478 0 01-6.879 1.846v2zm7.881-2.115c2.453-1.42 4.407-3.48 5.866-6.145l-1.754-.96c-1.3 2.374-3.006 4.154-5.114 5.374l1.002 1.73zm5.863-6.138c1.535-2.751 2.286-5.924 2.286-9.488h-2c0 3.277-.688 6.104-2.033 8.513l1.747.975zm38.252-42.697l.708-.708-.708.707zm0-9.36l.708.707-.708-.708zm9.27 0l-.707.707.707-.708zm0 9.36l-.707-.708.707.707zm.45 8.46h1v-1h-1v1zm0 49.59v1h1v-1h-1zm-10.26 0h-1v1h1v-1zm0-49.59v-1h-1v1h1zm5.22-7.57c-1.607 0-2.909-.534-3.972-1.598l-1.415 1.415c1.457 1.456 3.275 2.183 5.387 2.183v-2zm-3.972-1.598c-1.064-1.063-1.598-2.365-1.598-3.973h-2c0 2.113.727 3.931 2.183 5.388l1.415-1.415zm-1.598-3.973c0-1.607.534-2.909 1.598-3.972l-1.415-1.415c-1.456 1.457-2.183 3.275-2.183 5.387h2zm1.598-3.972c1.063-1.064 2.365-1.598 3.972-1.598v-2c-2.112 0-3.93.727-5.387 2.183l1.415 1.415zm3.972-1.598c1.538 0 2.813.527 3.883 1.598l1.415-1.415c-1.45-1.45-3.235-2.183-5.298-2.183v2zm3.883 1.598c1.064 1.063 1.597 2.365 1.597 3.973h2c0-2.113-.726-3.931-2.182-5.388L232.258 9.3zm1.597 3.973c0 1.607-.533 2.909-1.597 3.972l1.415 1.415c1.456-1.457 2.182-3.275 2.182-5.387h-2zm-1.597 3.972c-1.07 1.07-2.345 1.598-3.883 1.598v2c2.063 0 3.848-.734 5.298-2.183l-1.415-1.415zm.157 9.168v49.59h2v-49.59h-2zm1 48.59h-10.26v2h10.26v-2zm-9.26 1v-49.59h-2v49.59h2zm-1-48.59h10.26v-2h-10.26v2zm46.591-18.01h1v-1h-1v1zm0 66.6v1h1v-1h-1zm-10.26 0h-1v1h1v-1zm0-66.6v-1h-1v1h1zm9.26 0v66.6h2v-66.6h-2zm1 65.6h-10.26v2h10.26v-2zm-9.26 1v-66.6h-2v66.6h2zm-1-65.6h10.26v-2h-10.26v2zm35.97 27.35l-.877-.48-.006.01.883.47zm8.46-8.91l.511.86.004-.003-.515-.858zm22.05-.9l-.476.879.011.006.011.005.454-.89zm7.02 5.67l-.795.606 1.795 2.352v-2.959h-1zm0-7.2v-1h-1v1h1zm10.35 0h1v-1h-1v1zm0 49.59v1h1v-1h-1zm-10.35 0h-1v1h1v-1zm0-7.38h1V65.6l-1.802 2.424.802.596zm-7.11 5.85l-.461-.888.461.888zm-21.96-.9l-.531.847.011.006.52-.853zm-8.46-9.18l-.889.457.005.008.004.009.88-.475zm35.37-22.14l-.877.48.005.008.004.008.868-.496zm-5.49-5.76l-.501.865.501-.865zm-14.76 0l.484.875.009-.005.008-.005-.501-.865zm-5.58 5.67l-.868-.497-.004.007.872.49zm0 17.82l-.881.471.004.008.004.008.873-.488zm5.58 5.94l-.517.855.013.008.013.007.491-.87zm14.76 0l.501.865-.501-.866zm5.49-5.76l-.873-.488-.004.007.877.48zm-37.43-9.18c0-4.84.991-9.086 2.944-12.761l-1.767-.939c-2.127 4.005-3.177 8.58-3.177 13.7h2zm2.938-12.75c2.019-3.694 4.717-6.528 8.093-8.53l-1.021-1.72c-3.704 2.197-6.647 5.303-8.827 9.29l1.755.96zm8.097-8.533c3.44-2.064 7.221-3.098 11.365-3.098v-2c-4.495 0-8.634 1.127-12.394 3.383l1.029 1.715zm11.365-3.098c3.766 0 6.986.753 9.694 2.22l.953-1.759c-3.052-1.653-6.612-2.46-10.647-2.46v2zm9.716 2.231c2.827 1.442 5.043 3.242 6.679 5.386l1.59-1.213c-1.843-2.416-4.307-4.397-7.36-5.954l-.909 1.781zm8.474 4.78v-7.2h-2v7.2h2zm-1-6.2h10.35v-2h-10.35v2zm9.35-1v49.59h2v-49.59h-2zm1 48.59h-10.35v2h10.35v-2zm-9.35 1v-7.38h-2v7.38h2zm-1.802-7.977c-1.636 2.2-3.882 4.058-6.769 5.56l.923 1.774c3.113-1.619 5.607-3.661 7.451-6.14l-1.605-1.194zm-6.769 5.56c-2.839 1.476-6.097 2.227-9.799 2.227v2c3.979 0 7.561-.81 10.722-2.453l-.923-1.775zm-9.799 2.227c-4.081 0-7.8-1.033-11.179-3.094l-1.041 1.707c3.701 2.258 7.782 3.386 12.22 3.386v-2zm-11.168-3.088c-3.385-2.122-6.088-5.05-8.111-8.807l-1.761.949c2.177 4.043 5.114 7.235 8.809 9.553l1.063-1.695zm-8.103-8.79c-1.958-3.803-2.949-8.113-2.949-12.953h-2c0 5.12 1.05 9.75 3.171 13.868l1.778-.916zm37.641-12.773c0-3.562-.751-6.71-2.291-9.406l-1.737.993c1.34 2.344 2.028 5.136 2.028 8.413h2zm-2.283-9.39c-1.459-2.665-3.413-4.725-5.866-6.145l-1.002 1.73c2.108 1.221 3.814 3.001 5.114 5.376l1.754-.96zm-5.866-6.145a15.478 15.478 0 00-7.881-2.114v2c2.465 0 4.752.613 6.879 1.845l1.002-1.731zm-7.881-2.114c-2.815 0-5.448.706-7.881 2.114l1.002 1.73a13.483 13.483 0 016.879-1.845v-2zm-7.863 2.104c-2.459 1.359-4.445 3.389-5.965 6.05l1.737.992c1.359-2.38 3.093-4.13 5.195-5.291l-.967-1.75zm-5.969 6.056c-1.48 2.638-2.198 5.754-2.198 9.31h2c0-3.285.662-6.05 1.943-8.331l-1.745-.979zm-2.198 9.31c0 3.556.719 6.723 2.189 9.471l1.763-.943c-1.29-2.412-1.952-5.245-1.952-8.529h-2zm2.197 9.487c1.515 2.714 3.492 4.829 5.936 6.308l1.035-1.711c-2.116-1.28-3.86-3.127-5.224-5.572l-1.747.975zm5.962 6.323c2.484 1.401 5.112 2.11 7.871 2.11v-2c-2.4 0-4.692-.612-6.888-1.852l-.983 1.742zm7.871 2.11c2.816 0 5.449-.707 7.881-2.115l-1.002-1.731a13.478 13.478 0 01-6.879 1.846v2zm7.881-2.115c2.453-1.42 4.407-3.48 5.866-6.145l-1.754-.96c-1.3 2.374-3.006 4.154-5.114 5.374l1.002 1.73zm5.863-6.138c1.535-2.751 2.286-5.924 2.286-9.488h-2c0 3.277-.688 6.104-2.033 8.513l1.747.975zm47.973-26.858h-1v3.083l1.809-2.496-.809-.587zm7.11-5.85l.447.895.007-.004-.454-.89zm22.05.81l.51-.86-.51.86zm8.37 9l-.887.464.003.006.884-.47zm0 26.64l.886.464.002-.006-.888-.458zm-8.46 9.18l.52.854.004-.002-.524-.852zm-22.05.99l-.455.891.007.004.448-.895zm-7.02-5.76l.802-.596-1.802-2.424v3.02h1zm0 7.2v1h1v-1h-1zm-10.26 0h-1v1h1v-1zm0-66.6v-1h-1v1h1zm10.26 0h1v-1h-1v1zm27.99 32.76l-.878.48.007.013.008.013.863-.506zm-5.58-5.67l-.502.866.014.008.013.007.475-.88zm-14.76 0l-.492-.87-.01.005.502.866zm-5.581 5.76l-.868-.496-.004.008-.005.008.877.48zm0 17.91l-.881.472.006.012.007.013.868-.497zm5.581 5.76l-.502.866.01.005.492-.87zm14.76 0l.501.866.006-.004-.507-.862zm5.58-5.94l-.874-.487-.004.008-.004.008.882.471zm-27.181-25.603c1.634-2.253 3.872-4.104 6.748-5.542l-.895-1.789c-3.124 1.562-5.626 3.611-7.472 6.158l1.619 1.173zm6.755-5.546c2.908-1.482 6.14-2.23 9.716-2.23v-2c-3.865 0-7.413.811-10.625 2.449l.909 1.781zm9.716-2.23c4.212 0 7.994 1.007 11.369 3.01l1.021-1.72c-3.705-2.198-7.843-3.29-12.39-3.29v2zm11.369 3.01c3.369 1.998 6.034 4.856 7.994 8.603l1.773-.927c-2.12-4.053-5.035-7.195-8.746-9.397l-1.021 1.72zm7.997 8.609c1.953 3.675 2.944 7.92 2.944 12.76h2c0-5.12-1.05-9.694-3.177-13.699l-1.767.939zm2.944 12.76c0 4.84-.991 9.15-2.949 12.953l1.777.915c2.122-4.117 3.172-8.747 3.172-13.868h-2zm-2.947 12.947c-1.96 3.747-4.658 6.67-8.098 8.792l1.049 1.703c3.76-2.319 6.702-5.516 8.822-9.568l-1.773-.927zm-8.094 8.79c-3.377 2.06-7.125 3.093-11.269 3.093v2c4.495 0 8.607-1.126 12.31-3.386l-1.041-1.707zm-11.269 3.093c-3.708 0-6.971-.723-9.813-2.144l-.895 1.789c3.158 1.579 6.735 2.355 10.708 2.355v-2zm-9.806-2.14c-2.821-1.44-5.035-3.265-6.672-5.466l-1.605 1.193c1.843 2.48 4.309 4.494 7.368 6.054l.909-1.781zm-8.474-4.87v7.2h2v-7.2h-2zm1 6.2h-10.26v2h10.26v-2zm-9.26 1v-66.6h-2v66.6h2zm-1-65.6h10.26v-2h-10.26v2zm9.26-1v24.39h2V9.401h-2zm32.15 41.58c0-3.562-.751-6.684-2.297-9.325l-1.726 1.01c1.333 2.28 2.023 5.038 2.023 8.316h2zm-2.283-9.3c-1.465-2.675-3.459-4.71-5.983-6.07l-.949 1.76c2.156 1.162 3.882 2.906 5.177 5.27l1.755-.96zm-5.956-6.055a15.483 15.483 0 00-7.881-2.114v2c2.464 0 4.751.613 6.878 1.845l1.003-1.731zm-7.881-2.114c-2.76 0-5.388.707-7.872 2.108l.983 1.742c2.196-1.239 4.488-1.85 6.889-1.85v-2zm-7.882 2.114c-2.448 1.417-4.428 3.472-5.947 6.13l1.737.992c1.361-2.383 3.101-4.168 5.213-5.391l-1.003-1.731zm-5.956 6.145c-1.474 2.693-2.192 5.834-2.192 9.39h2c0-3.284.661-6.082 1.947-8.43l-1.755-.96zm-2.192 9.39c0 3.557.718 6.724 2.188 9.472l1.763-.943c-1.29-2.412-1.951-5.245-1.951-8.529h-2zm2.201 9.497c1.519 2.657 3.499 4.712 5.947 6.129l1.003-1.731c-2.112-1.223-3.852-3.008-5.213-5.39l-1.737.992zm5.957 6.134c2.484 1.401 5.112 2.11 7.872 2.11v-2c-2.401 0-4.693-.612-6.889-1.852l-.983 1.742zm7.872 2.11c2.815 0 5.448-.707 7.881-2.115l-1.003-1.731a13.477 13.477 0 01-6.878 1.846v2zm7.887-2.12c2.511-1.48 4.495-3.6 5.954-6.329l-1.763-.943c-1.301 2.431-3.037 4.27-5.206 5.55l1.015 1.723zm5.946-6.313c1.535-2.751 2.287-5.924 2.287-9.488h-2c0 3.277-.689 6.104-2.034 8.513l1.747.975zM453.269 9.4h1v-1h-1v1zm0 66.6v1h1v-1h-1zm-10.26 0h-1v1h1v-1zm0-66.6v-1h-1v1h1zm9.26 0v66.6h2v-66.6h-2zm1 65.6h-10.26v2h10.26v-2zm-9.26 1v-66.6h-2v66.6h2zm-1-65.6h10.26v-2h-10.26v2zm81.42 44.63v1h.853l.135-.841-.988-.158zm-37.89 0v-1h-1.079l.082 1.076.997-.075zm4.41 9.54l-.673.74.673-.74zm21.42-3.33v-1h-.622l-.275.558.897.443zm11.07 0l.95.313.432-1.313h-1.382v1zm-8.19 11.25l.594.805.002-.002-.596-.802zm-27.36 1.17l-.502.865.008.005.008.005.486-.874zm-8.82-9l-.88.475.004.008.004.008.872-.49zm-.09-26.91l-.88-.474-.003.005.883.47zm8.73-9l-.486-.874-.006.004.492.87zm25.47-.09l.487-.873-.487.873zm8.55 8.64l-.877.481.004.006.873-.486zm-7.65 9.45v1h1.016l-.016-1.015-1 .016zm-4.05-9.09l.654-.756-.654.756zm-18.9 0l.661.75.01-.008-.671-.742zm-4.5 9.09l-.992-.124-.141 1.124h1.133v-1zm37.16 3.24c0 1.819-.117 3.445-.347 4.883l1.975.316c.249-1.563.372-3.297.372-5.198h-2zm.64 4.04h-37.89v2h37.89v-2zm-38.887 1.076c.317 4.184 1.883 7.612 4.734 10.204l1.346-1.48c-2.429-2.208-3.803-5.139-4.086-8.875l-1.994.151zm4.734 10.204c2.839 2.581 6.325 3.86 10.393 3.86v-2c-3.612 0-6.606-1.12-9.047-3.34l-1.346 1.48zm10.393 3.86c2.9 0 5.44-.607 7.575-1.872 2.139-1.267 3.808-3.156 5.022-5.615l-1.794-.885c-1.066 2.16-2.486 3.736-4.248 4.78-1.765 1.045-3.935 1.593-6.555 1.593v2zm11.7-6.93h11.07v-2h-11.07v2zm10.12-1.312c-1.434 4.358-4.037 7.939-7.836 10.76l1.192 1.605c4.121-3.06 6.978-6.978 8.544-11.74l-1.9-.625zm-7.834 10.758c-3.696 2.73-8.336 4.124-13.986 4.124v2c5.99 0 11.07-1.484 15.174-4.515l-1.188-1.609zm-13.986 4.124c-4.587 0-8.677-1.014-12.294-3.024l-.972 1.749c3.943 2.19 8.373 3.275 13.266 3.275v-2zm-12.278-3.014c-3.562-2.068-6.376-4.937-8.45-8.626l-1.744.98c2.246 3.992 5.312 7.123 9.19 9.375l1.004-1.73zm-8.441-8.61c-2.011-3.733-3.031-8.066-3.031-13.026h-2c0 5.24 1.08 9.908 3.27 13.975l1.761-.949zm-3.031-13.026c0-4.964.992-9.268 2.943-12.94l-1.766-.939c-2.129 4.008-3.177 8.644-3.177 13.88h2zm2.941-12.935c2.013-3.74 4.791-6.6 8.341-8.604l-.984-1.741c-3.89 2.196-6.932 5.337-9.118 9.396l1.761.949zm8.335-8.6c3.613-2.008 7.763-3.024 12.474-3.024v-2c-5.008 0-9.499 1.083-13.446 3.275l.972 1.749zm12.474-3.024c4.53 0 8.529.985 12.023 2.933l.974-1.747c-3.826-2.132-8.167-3.186-12.997-3.186v2zm12.023 2.933c3.494 1.947 6.209 4.69 8.16 8.247l1.754-.961c-2.129-3.883-5.114-6.9-8.94-9.033l-.974 1.747zm8.164 8.253c1.945 3.491 2.933 7.549 2.933 12.204h2c0-4.946-1.052-9.348-3.186-13.177l-1.747.973zm-5.777 8.948c-.064-4.039-1.521-7.348-4.396-9.831l-1.308 1.513c2.405 2.077 3.648 4.828 3.704 8.35l2-.032zm-4.396-9.831c-2.844-2.456-6.354-3.663-10.464-3.663v2c3.69 0 6.72 1.072 9.156 3.176l1.308-1.513zm-10.464-3.663c-3.777 0-7.049 1.224-9.761 3.678l1.342 1.483c2.328-2.106 5.116-3.161 8.419-3.161v-2zm-9.751 3.67c-2.731 2.405-4.326 5.672-4.831 9.715l1.984.248c.455-3.636 1.86-6.429 4.169-8.463l-1.322-1.5zm-3.839 10.84h27.45v-2h-27.45v2zm104.306 26.99l-.426.904.011.005.01.005.405-.915zm-7.29-5.76l-.807.59.007.01.8-.6zm-2.88-8.19v-1h-1.041l.042 1.04.999-.04zm10.62 0l.996-.086-.078-.915h-.918v1zm2.97 5.31l-.625.78.014.012.015.01.596-.802zm13.59.45l.569.822.006-.005-.575-.817zm-.27-8.46l-.46.888.013.006.447-.894zm-8.37-2.97l.271-.963-.007-.002-.264.965zm-9.09-2.97l-.38.925.38-.925zm-6.12-4.41l-.763.646.006.007.006.007.751-.66zm-.18-15.03l.811.585.007-.01-.818-.575zm6.66-5.22l-.394-.92-.007.003.401.916zm23.67 2.43l-.644.764.007.006.007.006.63-.776zm5.58 11.61v1h1.05l-.051-1.05-.999.05zm-10.26 0l-.997.08.075.92h.922v-1zm-2.7-5.31l.632-.776-.632.776zm-12.78-.45l-.578-.817.578.817zm-.72 7.38l-.684.729.684-.73zm3.51 2.16l-.365.93.018.008.018.006.329-.944zm6.12 1.89l-.278.96.01.003.01.003.258-.966zm8.82 2.97l-.409.912.015.007.014.006.38-.925zm6.03 4.32l-.753.658.753-.658zm2.61 7.65h1v-.02l-1 .02zm-2.34 7.56l-.818-.576.818.575zm-6.66 5.22l-.401-.917-.007.004.408.912zm-9.99.89c-3.781 0-7.15-.669-10.126-1.985l-.809 1.829c3.265 1.444 6.915 2.155 10.935 2.155v-2zm-10.104-1.975c-2.932-1.38-5.226-3.202-6.916-5.456l-1.6 1.2c1.91 2.547 4.475 4.565 7.664 6.065l.852-1.81zm-6.909-5.446c-1.685-2.302-2.576-4.841-2.688-7.64l-1.998.08c.128 3.202 1.156 6.123 3.072 8.741l1.614-1.181zm-3.687-6.6h10.62v-2h-10.62v2zm9.623-.914c.206 2.4 1.35 4.412 3.342 6.005l1.25-1.561c-1.609-1.287-2.445-2.815-2.599-4.615l-1.993.17zm3.371 6.028c2.064 1.53 4.594 2.266 7.526 2.266v-2c-2.588 0-4.678-.644-6.334-1.873l-1.192 1.607zm7.526 2.266c2.984 0 5.436-.556 7.229-1.797l-1.138-1.645c-1.327.919-3.316 1.442-6.091 1.442v2zm7.235-1.802c1.844-1.297 2.855-3.023 2.855-5.138h-2c0 1.366-.609 2.52-2.006 3.503l1.151 1.635zm2.855-5.138c0-1.098-.268-2.103-.838-2.976-.566-.868-1.391-1.546-2.415-2.058l-.894 1.789c.776.388 1.301.85 1.634 1.362.331.507.513 1.122.513 1.883h2zm-3.241-5.028c-1.834-.949-4.706-1.96-8.558-3.044l-.542 1.925c3.827 1.076 6.536 2.045 8.181 2.896l.919-1.777zm-8.565-3.046c-3.699-1.014-6.686-1.992-8.975-2.93l-.759 1.85c2.392.98 5.464 1.983 9.205 3.009l.529-1.929zm-8.975-2.93c-2.191-.9-4.105-2.276-5.748-4.146l-1.502 1.32c1.837 2.091 4.003 3.655 6.491 4.676l.759-1.85zm-5.737-4.133c-1.491-1.757-2.282-4.119-2.282-7.183h-2c0 3.417.889 6.275 2.757 8.477l1.525-1.294zm-2.282-7.183c0-2.427.712-4.623 2.151-6.614l-1.622-1.171c-1.682 2.329-2.529 4.933-2.529 7.785h2zm2.158-6.625c1.439-2.047 3.503-3.68 6.243-4.878l-.802-1.833c-3.021 1.322-5.396 3.17-7.077 5.561l1.636 1.15zm6.236-4.875c2.795-1.198 6.017-1.81 9.686-1.81v-2c-3.891 0-7.389.65-10.474 1.971l.788 1.839zm9.686-1.81c5.467 0 9.749 1.393 12.946 4.085l1.288-1.53c-3.643-3.068-8.422-4.554-14.234-4.554v2zm12.96 4.097c3.236 2.622 4.983 6.215 5.211 10.882l1.998-.097c-.253-5.173-2.225-9.32-5.95-12.338l-1.259 1.553zm6.21 9.834h-10.26v2h10.26v-2zm-9.263.919c-.201-2.472-1.219-4.5-3.065-6.005l-1.264 1.55c1.394 1.136 2.176 2.648 2.335 4.616l1.994-.161zm-3.065-6.005c-1.849-1.506-4.286-2.204-7.202-2.204v2c2.604 0 4.547.621 5.938 1.755l1.264-1.55zm-7.202-2.204c-2.804 0-5.111.526-6.788 1.713l1.156 1.633c1.203-.853 3.036-1.346 5.632-1.346v-2zm-6.788 1.713c-1.689 1.197-2.582 2.843-2.582 4.867h2c0-1.337.547-2.39 1.738-3.235l-1.156-1.632zm-2.582 4.867c0 1.595.594 2.97 1.756 4.059l1.368-1.46c-.758-.71-1.124-1.555-1.124-2.6h-2zm1.756 4.059c1.064.997 2.346 1.781 3.829 2.362l.729-1.863c-1.276-.5-2.334-1.155-3.19-1.958l-1.368 1.459zm3.865 2.375c1.406.489 3.467 1.125 6.171 1.906l.555-1.921c-2.695-.779-4.714-1.403-6.069-1.874l-.657 1.889zm6.191 1.912c3.571.952 6.456 1.926 8.669 2.916l.817-1.825c-2.346-1.05-5.341-2.056-8.97-3.024l-.516 1.933zm8.698 2.929c2.196.9 4.078 2.248 5.657 4.053l1.505-1.317a16.96 16.96 0 00-6.403-4.587l-.759 1.85zm5.657 4.053c1.49 1.702 2.306 4.006 2.363 7.01l2-.037c-.064-3.356-.987-6.152-2.858-8.29l-1.505 1.317zm2.363 6.992c0 2.622-.722 4.94-2.158 6.984l1.636 1.15c1.683-2.395 2.522-5.117 2.522-8.134h-2zm-2.158 6.984c-1.439 2.048-3.504 3.68-6.243 4.88l.802 1.832c3.02-1.322 5.396-3.17 7.077-5.562l-1.636-1.15zm-6.25 4.882c-2.665 1.19-5.849 1.803-9.582 1.803v2c3.947 0 7.422-.647 10.398-1.977l-.816-1.826zm41.914-.346l-.496.868.01.006.486-.874zm-8.91-9l-.875.484.003.006.872-.49zm9.18-35.91l-.48-.878.48.878zm25.74 0l.48-.878-.48.878zm9 35.82l-.863-.505.863.505zm-9.36 9.09l.474.88.005-.003-.479-.877zm-5.58-7.65l-.474-.881-.01.005.484.876zm5.67-5.67l-.868-.497.868.497zm.09-18.27l-.877.48.005.009.872-.49zm-20.25-5.67l-.484-.876-.01.006.494.87zm-5.31 5.67l.881.472.005-.008-.886-.465zm2.07 21.51l-.737.676.008.008.007.007.722-.691zm10.35 12.23c-4.524 0-8.585-1.014-12.204-3.025l-.972 1.749c3.941 2.189 8.34 3.275 13.176 3.275v-2zm-12.194-3.019c-3.621-2.069-6.462-4.937-8.534-8.622l-1.744.98c2.248 3.996 5.347 7.128 9.286 9.379l.992-1.737zm-8.531-8.616c-2.067-3.732-3.115-8.06-3.115-13.016h-2c0 5.245 1.112 9.916 3.365 13.985l1.75-.969zm-3.115-13.016c0-4.888 1.075-9.183 3.199-12.915l-1.738-.99c-2.316 4.07-3.461 8.714-3.461 13.905h2zm3.199-12.915c2.131-3.743 5.028-6.609 8.701-8.617l-.96-1.755c-4.007 2.191-7.17 5.326-9.479 9.383l1.738.99zm8.701-8.617c3.681-2.013 7.803-3.027 12.39-3.027v-2c-4.893 0-9.351 1.085-13.35 3.272l.96 1.755zm12.39-3.027c4.587 0 8.709 1.014 12.39 3.027l.96-1.755c-3.999-2.187-8.457-3.272-13.35-3.272v2zm12.39 3.027c3.673 2.008 6.57 4.874 8.701 8.617l1.738-.99c-2.309-4.056-5.472-7.19-9.479-9.382l-.96 1.755zm8.701 8.617c2.124 3.732 3.199 8.027 3.199 12.915h2c0-5.191-1.145-9.836-3.461-13.904l-1.738.99zm3.199 12.915c0 4.884-1.103 9.176-3.283 12.906l1.726 1.01c2.38-4.071 3.557-8.72 3.557-13.916h-2zm-3.283 12.906c-2.189 3.743-5.176 6.644-8.976 8.717l.958 1.755c4.12-2.247 7.373-5.406 9.744-9.463l-1.726-1.01zm-8.971 8.714c-3.744 2.016-7.9 3.03-12.486 3.03v2c4.894 0 9.378-1.085 13.434-3.27l-.948-1.76zm-12.486-3.88c2.807 0 5.434-.671 7.864-2.014l-.968-1.75c-2.13 1.176-4.423 1.764-6.896 1.764v2zm7.854-2.01c2.52-1.356 4.54-3.386 6.064-6.053l-1.736-.993c-1.356 2.373-3.116 4.123-5.276 5.286l.948 1.76zm6.064-6.053c1.545-2.704 2.292-5.944 2.292-9.677h-2c0 3.468-.693 6.348-2.028 8.684l1.736.993zm2.292-9.677c0-3.724-.714-6.934-2.198-9.579l-1.744.979c1.276 2.275 1.942 5.126 1.942 8.6h2zm-2.193-9.57c-1.461-2.668-3.421-4.704-5.883-6.065l-.968 1.75c2.098 1.16 3.798 2.904 5.097 5.276l1.754-.96zm-5.883-6.065c-2.43-1.343-5.057-2.015-7.864-2.015v2c2.473 0 4.766.589 6.896 1.766l.968-1.75zm-7.864-2.015c-2.807 0-5.434.672-7.864 2.015l.968 1.75c2.13-1.176 4.423-1.765 6.896-1.765v-2zm-7.874 2.02c-2.405 1.366-4.303 3.407-5.702 6.077l1.772.928c1.241-2.37 2.883-4.11 4.918-5.265l-.988-1.74zM652.35 41.6c-1.418 2.641-2.099 5.844-2.099 9.563h2c0-3.482.639-6.34 1.861-8.618l-1.762-.945zm-2.099 9.563c0 5.504 1.394 9.916 4.313 13.096l1.474-1.353c-2.481-2.7-3.787-6.568-3.787-11.744h-2zm4.328 13.111c2.956 3.085 6.671 4.629 11.072 4.629v-2c-3.879 0-7.065-1.338-9.628-4.012l-1.444 1.383zm68.375 9.389l-.497.868.011.006.486-.874zm-8.91-9l-.875.484.003.006.872-.49zm9.18-35.91l-.48-.878.48.878zm25.74 0l.479-.878-.479.878zm9 35.82l-.864-.505.864.505zm-9.36 9.09l.474.88.004-.003-.478-.877zm-5.58-7.65l-.474-.881-.01.005.484.876zm5.67-5.67l-.869-.497.869.497zm.09-18.27l-.878.48.005.009.873-.49zm-20.25-5.67l-.484-.876-.01.006.494.87zm-5.31 5.67l.881.472.004-.008-.885-.465zm2.07 21.51l-.737.676.007.008.008.007.722-.691zm10.35 12.23c-4.525 0-8.585-1.014-12.205-3.025l-.971 1.749c3.941 2.189 8.34 3.275 13.176 3.275v-2zm-12.194-3.019c-3.621-2.069-6.462-4.937-8.535-8.622l-1.743.98c2.248 3.996 5.346 7.128 9.285 9.379l.993-1.737zm-8.532-8.616c-2.066-3.732-3.114-8.06-3.114-13.016h-2c0 5.245 1.112 9.916 3.365 13.985l1.749-.969zm-3.114-13.016c0-4.888 1.075-9.183 3.199-12.915l-1.738-.99c-2.316 4.07-3.461 8.714-3.461 13.905h2zm3.199-12.915c2.13-3.743 5.027-6.609 8.7-8.617l-.959-1.755c-4.007 2.191-7.17 5.326-9.479 9.383l1.738.99zm8.7-8.617c3.681-2.013 7.804-3.027 12.391-3.027v-2c-4.894 0-9.351 1.085-13.35 3.272l.959 1.755zm12.391-3.027c4.586 0 8.709 1.014 12.39 3.027l.959-1.755c-3.999-2.187-8.456-3.272-13.349-3.272v2zm12.39 3.027c3.673 2.008 6.57 4.874 8.701 8.617l1.738-.99c-2.31-4.056-5.473-7.19-9.48-9.382l-.959 1.755zm8.701 8.617c2.124 3.732 3.199 8.027 3.199 12.915h2c0-5.191-1.145-9.836-3.461-13.904l-1.738.99zm3.199 12.915c0 4.884-1.103 9.176-3.284 12.906l1.727 1.01c2.379-4.071 3.557-8.72 3.557-13.916h-2zM757.1 64.067c-2.188 3.743-5.175 6.644-8.975 8.717l.957 1.755c4.12-2.247 7.373-5.406 9.745-9.463l-1.727-1.01zm-8.97 8.714c-3.745 2.016-7.9 3.03-12.486 3.03v2c4.893 0 9.378-1.085 13.434-3.27l-.948-1.76zm-12.486-3.88c2.806 0 5.433-.671 7.863-2.014l-.967-1.75c-2.13 1.176-4.423 1.764-6.896 1.764v2zm7.854-2.01c2.52-1.356 4.54-3.386 6.064-6.053l-1.737-.993c-1.356 2.373-3.115 4.123-5.275 5.286l.948 1.76zm6.064-6.053c1.545-2.704 2.292-5.944 2.292-9.677h-2c0 3.468-.693 6.348-2.029 8.684l1.737.993zm2.292-9.677c0-3.724-.714-6.934-2.198-9.579l-1.745.979c1.277 2.275 1.943 5.126 1.943 8.6h2zm-2.193-9.57c-1.462-2.668-3.421-4.704-5.884-6.065l-.967 1.75c2.097 1.16 3.798 2.904 5.096 5.276l1.755-.96zm-5.884-6.065c-2.43-1.343-5.057-2.015-7.863-2.015v2c2.473 0 4.766.589 6.896 1.766l.967-1.75zm-7.863-2.015c-2.807 0-5.434.672-7.864 2.015l.967 1.75c2.13-1.176 4.423-1.765 6.897-1.765v-2zm-7.874 2.02c-2.406 1.366-4.304 3.407-5.702 6.077l1.771.928c1.242-2.37 2.884-4.11 4.918-5.265l-.987-1.74zm-5.698 6.068c-1.417 2.641-2.098 5.844-2.098 9.563h2c0-3.482.638-6.34 1.861-8.618l-1.763-.945zm-2.098 9.563c0 5.504 1.393 9.916 4.313 13.096l1.473-1.353c-2.48-2.7-3.786-6.568-3.786-11.744h-2zm4.328 13.111c2.956 3.085 6.671 4.629 11.072 4.629v-2c-3.879 0-7.065-1.338-9.628-4.012l-1.444 1.383zm95.014-36.241l-.468.883.007.004.461-.887zm7.29 7.2l-.877.48.877-.48zm2.61 40.77v1h1v-1h-1zm-10.17 0h-1v1h1v-1zm-3.33-37.89l-.734.679.009.009.725-.688zm-18.27 0l-.725-.69v.001l.725.688zm-3.33 37.89v1h1v-1h-1zm-10.26 0h-1v1h1v-1zm0-49.59v-1h-1v1h1zm10.26 0h1v-1h-1v1zm0 5.67h-1v2.787l1.772-2.152-.772-.636zm6.39-4.77l-.396-.919-.008.004.404.915zm8.37-.71c3.758 0 7.074.779 9.972 2.313l.936-1.767c-3.221-1.706-6.866-2.546-10.908-2.546v2zm9.979 2.317c2.938 1.526 5.226 3.78 6.874 6.793l1.754-.96c-1.832-3.349-4.404-5.894-7.706-7.608l-.922 1.775zm6.874 6.793c1.642 3 2.487 6.667 2.487 11.04h2c0-4.628-.895-8.642-2.733-12l-1.754.96zm2.487 11.04v29.25h2v-29.25h-2zm1 28.25h-10.17v2h10.17v-2zm-9.17 1v-27.72h-2v27.72h2zm0-27.72c0-4.599-1.151-8.272-3.604-10.859l-1.451 1.377c1.986 2.093 3.055 5.2 3.055 9.482h2zm-3.596-10.85c-2.442-2.64-5.758-3.92-9.824-3.92v2c3.614 0 6.359 1.12 8.356 3.279l1.468-1.359zm-9.824-3.92c-4.066 0-7.405 1.28-9.905 3.91l1.45 1.378c2.061-2.169 4.841-3.288 8.455-3.288v-2zm-9.905 3.911c-2.454 2.587-3.605 6.26-3.605 10.858h2c0-4.281 1.069-7.388 3.056-9.481l-1.451-1.377zm-3.605 10.858v27.72h2v-27.72h-2zm1 26.72h-10.26v2h10.26v-2zm-9.26 1v-49.59h-2v49.59h2zm-1-48.59h10.26v-2h-10.26v2zm9.26-1v5.67h2v-5.67h-2zm1.772 6.306c1.574-1.911 3.575-3.41 6.022-4.49l-.808-1.83c-2.713 1.199-4.972 2.88-6.758 5.049l1.544 1.271zm6.015-4.487c2.512-1.085 5.166-1.628 7.973-1.628v-2c-3.073 0-5.998.596-8.766 1.791l.793 1.837zm66.87-14.779l1 .027.028-1.027h-1.028v1zm-1.17 43.65v1h.974l.026-.973-1-.026zm-8.55 0l-.999.027.026.974h.973v-1zm-1.17-43.65v-1h-1.027l.028 1.027.999-.027zm1.08 61.29l-.707.708.707-.707zm0-9.36l-.707-.707.707.707zm9.27 9.36l-.707-.707.707.707zm-.459-61.316l-1.17 43.65 1.999.053 1.17-43.65-1.999-.053zm-.171 42.677h-8.55v2h8.55v-2zm-7.55.973l-1.17-43.65-1.999.053 1.17 43.65 1.999-.053zm-2.17-42.623h10.89v-2h-10.89v2zm5.76 61.18c-1.607 0-2.909-.534-3.972-1.598l-1.415 1.415c1.457 1.456 3.275 2.183 5.387 2.183v-2zm-3.972-1.598c-1.064-1.063-1.598-2.365-1.598-3.973h-2c0 2.113.727 3.931 2.183 5.388l1.415-1.415zm-1.598-3.973c0-1.607.534-2.909 1.598-3.972l-1.415-1.415c-1.456 1.457-2.183 3.275-2.183 5.387h2zm1.598-3.972c1.063-1.064 2.365-1.597 3.972-1.597v-2c-2.112 0-3.93.726-5.387 2.182l1.415 1.415zm3.972-1.597c1.538 0 2.813.526 3.883 1.597l1.415-1.415c-1.45-1.45-3.235-2.183-5.298-2.183v2zm3.883 1.597c1.064 1.063 1.597 2.365 1.597 3.972h2c0-2.112-.726-3.93-2.182-5.387l-1.415 1.415zm1.597 3.972c0 1.608-.533 2.91-1.597 3.973l1.415 1.415c1.456-1.457 2.182-3.275 2.182-5.388h-2zm-1.597 3.973c-1.07 1.07-2.345 1.597-3.883 1.597v2c2.063 0 3.848-.733 5.298-2.182l-1.415-1.415zm42.763-60.583l1 .027.028-1.027h-1.028v1zm-1.17 43.65v1h.974l.026-.973-1-.026zm-8.55 0l-.999.027.026.974h.973v-1zm-1.17-43.65v-1h-1.027l.028 1.027.999-.027zm1.08 61.29l-.707.708.707-.707zm0-9.36l-.707-.707.707.707zm9.27 9.36l-.707-.707.707.707zm-.459-61.316l-1.17 43.65 1.999.053 1.17-43.65-1.999-.053zm-.171 42.677h-8.55v2h8.55v-2zm-7.55.973l-1.17-43.65-1.999.053 1.17 43.65 1.999-.053zm-2.17-42.623h10.89v-2h-10.89v2zm5.76 61.18c-1.607 0-2.909-.534-3.972-1.598l-1.415 1.415c1.457 1.456 3.275 2.183 5.387 2.183v-2zm-3.972-1.598c-1.064-1.063-1.598-2.365-1.598-3.973h-2c0 2.113.727 3.931 2.183 5.388l1.415-1.415zm-1.598-3.973c0-1.607.534-2.909 1.598-3.972l-1.415-1.415c-1.456 1.457-2.183 3.275-2.183 5.387h2zm1.598-3.972c1.063-1.064 2.365-1.597 3.972-1.597v-2c-2.112 0-3.93.726-5.387 2.182l1.415 1.415zm3.972-1.597c1.538 0 2.813.526 3.883 1.597l1.415-1.415c-1.45-1.45-3.235-2.183-5.298-2.183v2zm3.883 1.597c1.064 1.063 1.597 2.365 1.597 3.972h2c0-2.112-.726-3.93-2.182-5.387l-1.415 1.415zm1.597 3.972c0 1.608-.533 2.91-1.597 3.973l1.415 1.415c1.456-1.457 2.182-3.275 2.182-5.388h-2zm-1.597 3.973c-1.07 1.07-2.345 1.597-3.883 1.597v2c2.063 0 3.848-.733 5.298-2.182l-1.415-1.415z"/>
  </g>
  <defs>
    <linearGradient id="paint0_linear_1381_1320" x1="3" x2="66.291" y1="-9.74" y2="280.849" gradientUnits="userSpaceOnUse">
      <stop stop-color="#745FF2"/>
      <stop offset="1" stop-color="#00DDA2"/>
    </linearGradient>
    <filter id="filter0_d_1381_1320" width="916.852" height="82.11" x=".059" y=".701" color-interpolation-filters="sRGB" filterUnits="userSpaceOnUse">
      <feFlood flood-opacity="0" result="BackgroundImageFix"/>
      <feColorMatrix in="SourceAlpha" result="hardAlpha" values="0 0 0 0 0 0 0 0 0 0 0 0 0 0 0 0 0 0 127 0"/>
      <feOffset/>
      <feGaussianBlur stdDeviation="3"/>
      <feComposite in2="hardAlpha" operator="out"/>
      <feColorMatrix values="0 0 0 0 0.635294 0 0 0 0 0.34902 0 0 0 0 1 0 0 0 0.84 0"/>
      <feBlend in2="BackgroundImageFix" result="effect1_dropShadow_1381_1320"/>
      <feBlend in="SourceGraphic" in2="effect1_dropShadow_1381_1320" result="shape"/>
    </filter>
  </defs>
</svg>
